<?xml version="1.0" standalone="no"?>
<!DOCTYPE svg PUBLIC "-//W3C//DTD SVG 20010904//EN"
 "http://www.w3.org/TR/2001/REC-SVG-20010904/DTD/svg10.dtd">
<svg version="1.0" xmlns="http://www.w3.org/2000/svg"
 width="1024.000000pt" height="1024.000000pt" viewBox="0 0 1024.000000 1024.000000"
 preserveAspectRatio="xMidYMid meet">

<g transform="translate(0.000000,1024.000000) scale(0.100000,-0.100000)"
fill="#000000" stroke="none">
<path d="M4903 8291 c-47 -12 -160 -62 -330 -146 -142 -71 -348 -172 -458
-225 -110 -53 -418 -203 -685 -332 -267 -129 -568 -275 -670 -323 -334 -158
-385 -184 -418 -215 -40 -39 -64 -86 -86 -170 -16 -60 -17 -191 -14 -1705 l3
-1640 23 -56 c27 -68 84 -136 149 -177 27 -17 157 -78 289 -136 293 -128 527
-234 694 -315 109 -53 121 -60 90 -61 -24 0 -40 -7 -50 -20 -8 -11 -20 -20
-27 -20 -7 0 -13 -8 -13 -19 0 -16 11 -19 92 -25 50 -3 115 -6 145 -6 l53 0
-2 -37 c-1 -37 -1 -37 -5 -5 -3 24 -9 32 -24 32 -16 0 -19 -7 -19 -45 0 -38 4
-48 30 -67 29 -21 30 -25 30 -95 l0 -73 -67 -1 c-38 0 -63 -3 -56 -5 7 -3 31
-23 55 -45 24 -21 49 -37 56 -34 8 3 12 -8 12 -36 0 -29 5 -41 18 -45 9 -3 36
-14 60 -25 23 -10 56 -19 72 -19 19 0 30 -5 30 -14 0 -10 16 -17 48 -21 26 -3
61 -8 78 -11 29 -4 32 -2 38 27 3 17 7 59 7 93 1 33 4 51 6 40 3 -17 14 -23
55 -28 28 -4 68 -16 89 -26 21 -11 58 -21 83 -22 36 -2 46 -7 46 -20 0 -10 4
-18 10 -18 5 0 13 -18 16 -40 l7 -40 148 0 c134 0 149 2 149 17 0 14 2 15 13
4 10 -11 10 -14 0 -18 -9 -3 -13 -27 -13 -73 0 -42 5 -71 13 -78 6 -5 73 -12
148 -14 l137 -4 7 78 c3 43 3 83 -1 90 -5 8 -2 9 11 4 14 -5 16 -4 6 7 -9 12
-4 13 31 10 24 -3 45 -8 48 -11 3 -4 19 -8 35 -9 17 -2 62 -6 101 -9 l71 -7 6
-54 c3 -30 8 -58 11 -61 10 -9 189 17 196 29 4 6 27 11 51 12 l44 2 3 43 3 42
120 0 c99 0 119 3 119 15 0 22 57 20 63 -2 3 -10 5 0 6 23 0 23 4 75 7 117 6
66 10 76 30 86 13 6 31 8 39 5 10 -4 15 -2 13 7 -3 13 3 15 43 18 11 0 18 5
15 10 -3 5 0 9 7 8 6 0 47 1 90 1 l77 2 0 43 0 42 166 78 c91 43 169 75 175
72 5 -4 12 0 15 9 7 17 62 39 77 29 5 -3 7 -2 4 4 -4 6 71 47 176 96 1081 508
1059 497 1133 572 42 43 69 81 85 121 l24 59 3 1585 c2 1033 -1 1621 -8 1688
-8 86 -15 114 -42 164 -17 33 -46 70 -62 83 -38 29 -150 85 -406 203 -107 49
-229 106 -270 125 -41 19 -169 79 -285 132 -115 53 -316 147 -445 207 -129 61
-273 127 -320 148 -47 21 -148 67 -225 103 -425 197 -633 289 -698 308 -99 30
-302 34 -404 10z m931 -455 c23 -13 61 -45 84 -70 33 -36 42 -53 42 -81 0 -62
0 -62 -330 -180 l-175 -63 -45 40 c-101 91 -210 200 -210 209 0 5 6 12 13 14
6 2 99 36 205 75 107 39 210 75 230 80 58 14 138 4 186 -24z m-661 -346 c118
-112 117 -108 32 -136 -27 -9 -116 -41 -198 -71 -81 -30 -154 -53 -161 -51
-16 3 -266 226 -266 236 0 4 98 41 218 83 254 90 208 97 375 -61z m-614 -212
c58 -51 106 -98 108 -105 2 -6 -25 -20 -64 -33 -37 -13 -146 -51 -242 -86
-150 -55 -177 -62 -190 -50 -9 7 -70 59 -136 116 -66 56 -121 105 -123 109 -1
4 19 14 45 23 27 9 138 48 248 86 233 81 189 89 354 -60z m-653 -273 l59 -56
-34 -31 -34 -30 -18 56 c-9 31 -29 72 -43 91 -52 67 -17 53 70 -30z m-427 -7
c-25 -87 7 -196 74 -254 23 -20 51 -40 62 -45 14 -7 7 -8 -28 -5 -109 9 -202
127 -183 230 7 34 58 106 76 106 5 0 4 -15 -1 -32z m260 -22 c12 -13 24 -39
27 -58 5 -27 1 -40 -21 -66 -78 -92 -218 28 -144 122 40 50 92 51 138 2z
m1001 -12 c0 -3 -41 -68 -91 -145 l-91 -139 -237 2 -236 3 3 35 c3 40 58 145
109 207 l35 43 254 0 c140 0 254 -2 254 -6z m644 -25 c-9 -18 -49 -83 -90
-145 l-73 -114 -241 0 c-132 0 -240 3 -240 6 0 3 39 68 86 145 l86 139 244 0
245 0 -17 -31z m562 9 c16 -12 64 -55 106 -96 l77 -74 74 4 74 3 -20 -28 c-12
-15 -41 -37 -66 -50 -45 -21 -56 -22 -413 -25 -216 -2 -368 1 -368 6 0 5 30
58 66 118 37 60 74 121 83 136 l16 28 171 0 c161 0 173 -1 200 -22z m-1950
-164 l1 -106 -101 3 c-140 2 -145 4 -99 38 50 36 58 47 80 106 18 49 19 50 68
56 28 3 50 7 50 7 0 1 0 -46 1 -104z m-264 -1593 c148 -38 282 -123 408 -259
163 -173 247 -343 286 -572 46 -280 -51 -537 -247 -649 -158 -90 -404 -78
-597 30 -342 191 -554 570 -529 944 18 264 128 428 337 502 86 30 233 32 342
4z m2878 -336 c320 -133 446 -188 459 -200 23 -22 7 -46 -156 -231 -81 -93
-211 -245 -288 -338 -77 -93 -155 -184 -173 -203 -36 -35 -76 -43 -86 -17 -3
9 -6 231 -6 494 0 519 0 523 54 545 35 15 45 12 196 -50z m-1037 -2734 c-4 -3
-57 -4 -118 -1 l-110 5 60 18 c33 10 85 26 115 35 l55 17 3 -34 c2 -18 0 -36
-5 -40z"/>
<path d="M3680 5008 c0 -52 -2 -97 -6 -100 -3 -3 -71 14 -152 38 -199 60 -205
61 -231 33 -19 -21 -21 -33 -21 -171 0 -168 6 -159 -90 -133 -30 8 -56 15 -58
15 -2 0 -2 -26 0 -57 l3 -57 70 -22 70 -22 5 -168 c5 -170 10 -193 47 -226 10
-9 93 -40 186 -69 l167 -53 0 -107 0 -107 61 -21 c34 -11 66 -18 70 -15 5 3 9
50 9 106 0 76 3 99 13 95 57 -22 299 -97 312 -97 9 0 27 11 40 25 24 24 25 28
25 180 0 176 -7 166 89 136 l61 -19 0 64 0 63 -42 11 c-24 6 -58 17 -76 25
l-33 15 3 143 c3 134 2 144 -20 180 -30 48 -38 52 -217 112 l-150 50 -5 105
c-5 103 -6 105 -33 118 -15 7 -43 16 -62 19 l-35 6 0 -95z m-252 -161 c3 -50
-2 -54 -42 -35 -29 13 -40 39 -32 72 5 21 10 23 38 17 31 -6 33 -10 36 -54z
m278 -38 c87 -28 174 -56 192 -62 21 -7 35 -19 38 -34 8 -29 -2 -54 -18 -48
-7 2 -94 29 -193 61 -99 31 -186 61 -192 66 -18 14 -17 68 1 68 7 0 85 -23
172 -51z m-292 -85 c14 -5 16 -31 16 -180 0 -187 -3 -199 -49 -174 -20 10 -21
19 -21 185 0 166 1 175 19 175 11 0 26 -3 35 -6z m688 -57 c14 -22 9 -77 -7
-77 -35 0 -65 23 -65 51 0 49 8 59 38 48 15 -6 30 -16 34 -22z m-18 -157 l26
-10 0 -175 c0 -188 -3 -200 -49 -175 -20 10 -21 19 -21 190 0 105 4 180 9 180
5 0 21 -4 35 -10z m-679 -232 c20 -9 25 -18 25 -49 0 -43 -6 -50 -37 -38 -28
10 -46 45 -39 75 7 27 14 29 51 12z m318 -114 c100 -31 190 -61 200 -66 18 -9
24 -62 7 -73 -11 -7 -354 100 -387 121 -24 15 -33 74 -12 74 6 0 93 -25 192
-56z m385 -152 c3 -39 1 -42 -22 -42 -36 0 -56 25 -56 70 l0 39 38 -13 c34
-12 37 -16 40 -54z"/>
<path d="M3355 2690 c3 -6 1 -10 -6 -10 -14 0 -6 -110 10 -119 5 -4 11 -24 14
-46 3 -29 4 -23 5 23 1 40 -2 61 -8 57 -6 -4 -10 9 -9 32 1 34 2 35 9 13 7
-23 8 -21 9 11 1 25 -4 39 -15 43 -8 3 -12 2 -9 -4z"/>
<path d="M6579 2651 c-8 -8 -17 -24 -20 -35 -6 -20 -7 -20 -17 4 -11 25 -11
25 -11 -6 -1 -44 10 -94 20 -94 5 0 9 9 9 20 0 16 7 20 30 20 23 0 30 4 30 20
0 11 5 20 10 20 6 0 10 15 10 34 0 29 -3 34 -24 32 -13 0 -30 -8 -37 -15z"/>
<path d="M6217 2403 c-9 -8 -9 -51 -1 -92 6 -26 11 -31 35 -31 19 0 29 5 29
15 0 8 9 15 20 15 11 0 20 7 20 15 0 8 8 15 17 15 34 0 83 24 83 41 0 10 6 20
13 22 6 3 -38 6 -99 6 -61 1 -114 -2 -117 -6z"/>
<path d="M4155 2111 l-80 -6 74 -8 c41 -5 92 -17 113 -28 21 -11 50 -24 63
-29 24 -9 25 -8 25 35 l0 45 -57 -2 c-32 -1 -94 -4 -138 -7z"/>
</g>
</svg>
